# xmcd CD database file
#
# Track frame offsets:
#	150
#	14616
#	30398
#	48159
#	72379
#	91140
#	105116
#	125324
#	145428
#	162646
#
# Disc length: 2491 seconds
#
# Revision: 3
# Processed by: cddbd v1.5.2PL0 Copyright (c) Steve Scherf et al.
# Submitted via: CDex 1.70beta2
#
DISCID=7d09b90a
DTITLE=Pinetop Perkins - Pinetop Perkins and Friends
DYEAR=2008
DGENRE=Blues
TTITLE0=Take It Easy Baby (with Jimmie Vaughan)
TTITLE1=Got My Mojo Working (with Eric Sardinas)
TTITLE2=Down In Mississippi (with B. B. King)
TTITLE3=How Long Blues - Come Back Baby (with Nora Jean Bruso and Eric Clapton)
TTITLE4=Hoochie Coochie Man (with Jimmie Vaughan)
TTITLE5=Barefootin' (with Eric Sardinas)
TTITLE6=Look On Yonders Wall (with Jimmie Vaughan)
TTITLE7=Anna Lee (with Jimmie Vaughan)
TTITLE8=Sweet Home Chicago
TTITLE9=Bad Luck Baby
EXTD=YEAR: 2008
EXTT0=
EXTT1=
EXTT2=
EXTT3=
EXTT4=
EXTT5=
EXTT6=
EXTT7=
EXTT8=
EXTT9=
PLAYORDER=
